<svg width="48" height="48" viewBox="0 0 48 48" fill="none" xmlns="http://www.w3.org/2000/svg">
<g clip-path="url(#clip0_144_9823)">
<path d="M46.5 19C46.303 19 46.1079 19.0387 45.9259 19.1141C45.7439 19.1895 45.5786 19.3 45.4393 19.4393C45.3 19.5786 45.1895 19.7439 45.1141 19.9259C45.0387 20.1079 45 20.303 45 20.5V22H40.8722C40.5071 18.8899 39.285 15.9424 37.3423 13.4863L40.2635 10.5649L41.4393 11.5605C41.5785 11.7001 41.7439 11.8108 41.9259 11.8864C42.1079 11.962 42.3031 12.001 42.5002 12.0011C42.6973 12.0012 42.8925 11.9625 43.0747 11.8871C43.2568 11.8118 43.4223 11.7012 43.5617 11.5619C43.7011 11.4225 43.8116 11.257 43.887 11.0749C43.9624 10.8928 44.0012 10.6976 44.0011 10.5004C44.001 10.3033 43.962 10.1082 43.8864 9.9261C43.8109 9.74405 43.7002 9.57868 43.5606 9.43945L38.5607 4.43945C38.2794 4.15815 37.8979 4.00011 37.5001 4.0001C37.1023 4.00008 36.7208 4.15809 36.4395 4.43936C36.1582 4.72064 36.0002 5.10214 36.0002 5.49994C36.0002 5.89774 36.1582 6.27925 36.4394 6.56055L37.4351 7.73633L34.5137 10.6577C32.0576 8.71516 29.1101 7.49314 26 7.12793V3H27.5C27.8978 3 28.2794 2.84196 28.5607 2.56066C28.842 2.27936 29 1.89782 29 1.5C29 1.10218 28.842 0.720644 28.5607 0.43934C28.2794 0.158035 27.8978 0 27.5 0L20.5 0C20.1022 0 19.7206 0.158035 19.4393 0.43934C19.158 0.720644 19 1.10218 19 1.5C19 1.89782 19.158 2.27936 19.4393 2.56066C19.7206 2.84196 20.1022 3 20.5 3H22V7.12793C18.8899 7.49314 15.9424 8.71517 13.4863 10.6577L10.5649 7.73633L11.5606 6.56055C11.6999 6.42127 11.8103 6.25591 11.8857 6.07393C11.9611 5.89195 11.9999 5.69691 11.9999 5.49994C11.9999 5.30297 11.961 5.10793 11.8857 4.92596C11.8103 4.74398 11.6998 4.57864 11.5605 4.43936C11.4212 4.30009 11.2559 4.18962 11.0739 4.11425C10.8919 4.03888 10.6969 4.00009 10.4999 4.0001C10.1021 4.00011 9.72059 4.15815 9.43932 4.43945L4.55457 9.43945C4.27443 9.72099 4.11739 10.1022 4.1179 10.4993C4.11841 10.8965 4.27642 11.2772 4.55728 11.5581C4.83813 11.8389 5.21891 11.9969 5.61608 11.9973C6.01325 11.9978 6.39439 11.8407 6.6759 11.5605L7.73657 10.5649L10.6578 13.4863C8.71506 15.9424 7.49293 18.8899 7.12775 22H3V20.5C3 20.1022 2.84196 19.7206 2.56066 19.4393C2.27936 19.158 1.89782 19 1.5 19C1.10218 19 0.720644 19.158 0.43934 19.4393C0.158035 19.7206 0 20.1022 0 20.5L0 27.5C0 27.8978 0.158035 28.2794 0.43934 28.5607C0.720644 28.842 1.10218 29 1.5 29C1.89782 29 2.27936 28.842 2.56066 28.5607C2.84196 28.2794 3 27.8978 3 27.5V26H7.12775C7.49292 29.1101 8.71504 32.0576 10.6578 34.5137L7.73657 37.4351L6.56075 36.4394C6.27937 36.1587 5.89803 36.0011 5.50051 36.0013C5.103 36.0015 4.72182 36.1595 4.44072 36.4405C4.15962 36.7216 4.00159 37.1027 4.00134 37.5003C4.0011 37.8978 4.15866 38.2791 4.43941 38.5606L9.43932 43.5606C9.57859 43.6998 9.74394 43.8103 9.92591 43.8857C10.1079 43.9611 10.3029 43.9999 10.4999 43.9999C10.6969 43.9999 10.8919 43.9611 11.0739 43.8858C11.2559 43.8104 11.4212 43.6999 11.5605 43.5606C11.6998 43.4214 11.8103 43.256 11.8857 43.074C11.961 42.8921 11.9999 42.697 11.9999 42.5001C11.9999 42.3031 11.9611 42.108 11.8857 41.9261C11.8103 41.7441 11.6999 41.5787 11.5606 41.4394L10.5649 40.2637L13.4862 37.3423C15.9424 39.2849 18.8899 40.5069 22 40.8721V45H20.5C20.1022 45 19.7206 45.158 19.4393 45.4393C19.158 45.7206 19 46.1022 19 46.5C19 46.8978 19.158 47.2794 19.4393 47.5607C19.7206 47.842 20.1022 48 20.5 48H27.5C27.8978 48 28.2794 47.842 28.5607 47.5607C28.842 47.2794 29 46.8978 29 46.5C29 46.1022 28.842 45.7206 28.5607 45.4393C28.2794 45.158 27.8978 45 27.5 45H26V40.8721C29.1101 40.5069 32.0576 39.2849 34.5138 37.3423L37.4351 40.2637L36.4394 41.4394C36.1581 41.7207 36.0001 42.1023 36.0001 42.5001C36.0002 42.8979 36.1582 43.2794 36.4395 43.5606C36.7208 43.8419 37.1023 43.9999 37.5001 43.9999C37.8979 43.9999 38.2794 43.8418 38.5607 43.5606L43.5606 38.5606C43.7001 38.4213 43.8108 38.2559 43.8864 38.0739C43.962 37.8918 44.0009 37.6967 44.001 37.4996C44.0011 37.3024 43.9624 37.1072 43.887 36.9251C43.8116 36.743 43.7011 36.5775 43.5617 36.4381C43.4223 36.2988 43.2568 36.1882 43.0746 36.1129C42.8925 36.0375 42.6973 35.9988 42.5002 35.9989C42.3031 35.999 42.1079 36.038 41.9259 36.1136C41.7438 36.1892 41.5785 36.2999 41.4393 36.4394L40.2634 37.4351L37.3422 34.5137C39.2849 32.0576 40.5071 29.1101 40.8722 26H45V27.5C45 27.8978 45.158 28.2794 45.4393 28.5607C45.7206 28.842 46.1022 29 46.5 29C46.8978 29 47.2794 28.842 47.5607 28.5607C47.842 28.2794 48 27.8978 48 27.5V20.5C48 20.303 47.9613 20.1079 47.8859 19.9259C47.8105 19.7439 47.7 19.5786 47.5607 19.4393C47.4214 19.3 47.2561 19.1895 47.0741 19.1141C46.8921 19.0387 46.697 19 46.5 19ZM18.5 20C17.8078 20 17.1311 19.7947 16.5555 19.4101C15.9799 19.0256 15.5313 18.4789 15.2664 17.8394C15.0015 17.1999 14.9322 16.4961 15.0673 15.8172C15.2023 15.1382 15.5356 14.5146 16.0251 14.0251C16.5146 13.5356 17.1383 13.2023 17.8172 13.0673C18.4961 12.9322 19.1999 13.0015 19.8394 13.2664C20.4789 13.5313 21.0256 13.9799 21.4101 14.5555C21.7947 15.1311 22 15.8078 22 16.5C22 16.9596 21.9095 17.4148 21.7336 17.8394C21.5577 18.264 21.2999 18.6499 20.9749 18.9749C20.6499 19.2999 20.264 19.5577 19.8394 19.7336C19.4148 19.9095 18.9596 20 18.5 20ZM30 33C29.6044 33 29.2178 32.8827 28.8889 32.6629C28.56 32.4432 28.3036 32.1308 28.1522 31.7654C28.0009 31.3999 27.9613 30.9978 28.0384 30.6098C28.1156 30.2219 28.3061 29.8655 28.5858 29.5858C28.8655 29.3061 29.2219 29.1156 29.6098 29.0384C29.9978 28.9613 30.3999 29.0009 30.7654 29.1522C31.1308 29.3036 31.4432 29.56 31.6629 29.8889C31.8827 30.2178 32 30.6044 32 31C32 31.5304 31.7893 32.0391 31.4142 32.4142C31.0391 32.7893 30.5304 33 30 33Z" fill="#00C0FF"/>
</g>
<defs>
<clipPath id="clip0_144_9823">
<rect width="48" height="48" fill="white"/>
</clipPath>
</defs>
</svg>
