<svg width="1440" height="724" viewBox="0 0 1440 724" fill="none" xmlns="http://www.w3.org/2000/svg">
<g clip-path="url(#clip0_142_4912)">
<g opacity="0.3" filter="url(#filter0_f_142_4912)">
<path opacity="0.3" d="M-180.528 437.029C-48.2713 437.029 58.944 325.802 58.944 188.597C58.944 51.3918 -48.2713 -59.835 -180.528 -59.835C-312.785 -59.835 -420 51.3918 -420 188.597C-420 325.802 -312.785 437.029 -180.528 437.029Z" fill="#D5AEE4"/>
</g>
<path d="M758.307 222C717.907 153.2 741.474 13.3333 758.307 -48L1437.81 -149L1502.31 122.5L1463.81 723.5C1385.14 724.5 1209.71 717 1137.31 679C1046.81 631.5 1087.81 555 1012.81 515C937.807 475 980.807 369.5 954.807 329.5C928.807 289.5 808.807 308 758.307 222Z" fill="#00C0FF"/>
</g>
<defs>
<filter id="filter0_f_142_4912" x="-570" y="-209.835" width="778.943" height="796.864" filterUnits="userSpaceOnUse" color-interpolation-filters="sRGB">
<feFlood flood-opacity="0" result="BackgroundImageFix"/>
<feBlend mode="normal" in="SourceGraphic" in2="BackgroundImageFix" result="shape"/>
<feGaussianBlur stdDeviation="75" result="effect1_foregroundBlur_142_4912"/>
</filter>
<clipPath id="clip0_142_4912">
<rect width="1440" height="724" fill="white"/>
</clipPath>
</defs>
</svg>
